<svg width="32" height="32" viewBox="0 0 32 32" fill="none" xmlns="http://www.w3.org/2000/svg">
<path d="M0 16C0 7.16344 7.16344 0 16 0C24.8366 0 32 7.16344 32 16C32 24.8366 24.8366 32 16 32C7.16344 32 0 24.8366 0 16Z" fill="#01FE84"/>
<path d="M0 16C0 7.16344 7.16344 0 16 0C24.8366 0 32 7.16344 32 16C32 24.8366 24.8366 32 16 32C7.16344 32 0 24.8366 0 16Z" stroke="#E5E7EB"/>
<path d="M8.125 9H23.875V23H8.125V9Z" stroke="#E5E7EB"/>
<g clip-path="url(#clip0_123_2091)">
<path d="M16.7902 9.49219C16.6453 9.19141 16.339 9 16.0027 9C15.6664 9 15.3629 9.19141 15.2152 9.49219L13.457 13.1098L9.53045 13.6895C9.20232 13.7387 8.92889 13.9684 8.82772 14.2828C8.72654 14.5973 8.80857 14.9445 9.04373 15.177L11.8929 17.9961L11.2203 21.9801C11.1656 22.3082 11.3023 22.6418 11.573 22.8359C11.8437 23.0301 12.2019 23.0547 12.4972 22.8988L16.0055 21.0258L19.5137 22.8988C19.809 23.0547 20.1672 23.0328 20.4379 22.8359C20.7086 22.6391 20.8453 22.3082 20.7906 21.9801L20.1152 17.9961L22.9644 15.177C23.1996 14.9445 23.2844 14.5973 23.1804 14.2828C23.0765 13.9684 22.8058 13.7387 22.4777 13.6895L18.5484 13.1098L16.7902 9.49219Z" fill="#101310"/>
</g>
<defs>
<clipPath id="clip0_123_2091">
<path d="M8.125 9H23.875V23H8.125V9Z" fill="white"/>
</clipPath>
</defs>
</svg>
