<svg width="120" height="120" viewBox="0 0 120 120" fill="none" xmlns="http://www.w3.org/2000/svg">
<path d="M2 60C2 27.9675 27.9675 2 60 2C92.0325 2 118 27.9675 118 60C118 92.0325 92.0325 118 60 118C27.9675 118 2 92.0325 2 60Z" stroke="#01FE84" stroke-width="4"/>
<g clip-path="url(#clip0_123_2090)">
<g clip-path="url(#clip1_123_2090)">
<path d="M80.1189 45.8813C81.2908 47.0532 81.2908 48.9563 80.1189 50.1282L56.1189 74.1282C54.9471 75.3001 53.0439 75.3001 51.8721 74.1282L39.8721 62.1282C38.7002 60.9563 38.7002 59.0532 39.8721 57.8813C41.0439 56.7095 42.9471 56.7095 44.1189 57.8813L54.0002 67.7532L75.8814 45.8813C77.0533 44.7095 78.9564 44.7095 80.1283 45.8813H80.1189Z" fill="#01FE84"/>
</g>
</g>
<defs>
<clipPath id="clip0_123_2090">
<rect width="42" height="48" fill="white" transform="translate(39 36)"/>
</clipPath>
<clipPath id="clip1_123_2090">
<path d="M39 36H81V84H39V36Z" fill="white"/>
</clipPath>
</defs>
</svg>
